<svg width="100" height="100" viewBox="0 0 100 100" fill="none" xmlns="http://www.w3.org/2000/svg">
  <circle cx="50" cy="50" r="48" fill="url(#gradient)" stroke="white" stroke-width="2"/>
  <path d="M50 25C63.8071 25 75 36.1929 75 50C75 63.8071 63.8071 75 50 75C36.1929 75 25 63.8071 25 50C25 36.1929 36.1929 25 50 25Z" stroke="white" stroke-width="3"/>
  <path d="M65 50C65 58.2843 58.2843 65 50 65C41.7157 65 35 58.2843 35 50C35 41.7157 41.7157 35 50 35C58.2843 35 65 41.7157 65 50Z" fill="#0a0b0e" stroke="white" stroke-width="2"/>
  <path d="M30 50L70 50" stroke="white" stroke-width="2"/>
  <path d="M50 30L50 70" stroke="white" stroke-width="2"/>
  <defs>
    <linearGradient id="gradient" x1="0" y1="0" x2="100" y2="100" gradientUnits="userSpaceOnUse">
      <stop offset="0" stop-color="#0ff4c6"/>
      <stop offset="1" stop-color="#3700ff"/>
    </linearGradient>
  </defs>
</svg>